<?xml version="1.0" encoding="us-ascii" standalone="no"?><svg xmlns="http://www.w3.org/2000/svg" xmlns:xlink="http://www.w3.org/1999/xlink" contentStyleType="text/css" height="887px" preserveAspectRatio="none" style="width:1159px;height:887px;background:#FFFFFF;" version="1.1" viewBox="0 0 1159 887" width="1159px" zoomAndPan="magnify"><defs/><g><rect fill="none" height="241.6481" style="stroke:#000000;stroke-width:1.5;" width="917.5" x="10" y="323.01"/><line style="stroke:#181818;stroke-width:0.5;stroke-dasharray:5.0,5.0;" x1="38" x2="38" y1="84.0679" y2="803.6003"/><line style="stroke:#181818;stroke-width:0.5;stroke-dasharray:5.0,5.0;" x1="161.5" x2="161.5" y1="84.0679" y2="803.6003"/><line style="stroke:#181818;stroke-width:0.5;stroke-dasharray:5.0,5.0;" x1="462" x2="462" y1="84.0679" y2="803.6003"/><line style="stroke:#181818;stroke-width:0.5;stroke-dasharray:5.0,5.0;" x1="675" x2="675" y1="84.0679" y2="803.6003"/><line style="stroke:#181818;stroke-width:0.5;stroke-dasharray:5.0,5.0;" x1="870.5" x2="870.5" y1="84.0679" y2="803.6003"/><line style="stroke:#181818;stroke-width:0.5;stroke-dasharray:5.0,5.0;" x1="965.5" x2="965.5" y1="84.0679" y2="803.6003"/><line style="stroke:#181818;stroke-width:0.5;stroke-dasharray:5.0,5.0;" x1="1083.5" x2="1083.5" y1="84.0679" y2="803.6003"/><text fill="#000000" font-family="sans-serif" font-size="14" lengthAdjust="spacing" textLength="31" x="20" y="79.9659">User</text><ellipse cx="38.5" cy="13.5" fill="#E2E2F0" rx="8" ry="8" style="stroke:#181818;stroke-width:0.5;"/><path d="M38.5,21.5 L38.5,48.5 M25.5,29.5 L51.5,29.5 M38.5,48.5 L25.5,63.5 M38.5,48.5 L51.5,63.5 " fill="none" style="stroke:#181818;stroke-width:0.5;"/><text fill="#000000" font-family="sans-serif" font-size="14" lengthAdjust="spacing" textLength="31" x="20" y="817.5662">User</text><ellipse cx="38.5" cy="830.1682" fill="#E2E2F0" rx="8" ry="8" style="stroke:#181818;stroke-width:0.5;"/><path d="M38.5,838.1682 L38.5,865.1682 M25.5,846.1682 L51.5,846.1682 M38.5,865.1682 L25.5,880.1682 M38.5,865.1682 L51.5,880.1682 " fill="none" style="stroke:#181818;stroke-width:0.5;"/><rect fill="#E2E2F0" height="33.0679" rx="2.5" ry="2.5" style="stroke:#181818;stroke-width:0.5;" width="128" x="97.5" y="50"/><text fill="#000000" font-family="sans-serif" font-size="14" lengthAdjust="spacing" textLength="114" x="104.5" y="71.9659">WebSocket client</text><rect fill="#E2E2F0" height="33.0679" rx="2.5" ry="2.5" style="stroke:#181818;stroke-width:0.5;" width="128" x="97.5" y="802.6003"/><text fill="#000000" font-family="sans-serif" font-size="14" lengthAdjust="spacing" textLength="114" x="104.5" y="824.5662">WebSocket client</text><rect fill="#E2E2F0" height="33.0679" rx="2.5" ry="2.5" style="stroke:#181818;stroke-width:0.5;" width="171" x="377" y="50"/><text fill="#000000" font-family="sans-serif" font-size="14" lengthAdjust="spacing" textLength="157" x="384" y="71.9659">WebSocket server (app)</text><rect fill="#E2E2F0" height="33.0679" rx="2.5" ry="2.5" style="stroke:#181818;stroke-width:0.5;" width="171" x="377" y="802.6003"/><text fill="#000000" font-family="sans-serif" font-size="14" lengthAdjust="spacing" textLength="157" x="384" y="824.5662">WebSocket server (app)</text><rect fill="#E2E2F0" height="33.0679" rx="2.5" ry="2.5" style="stroke:#181818;stroke-width:0.5;" width="135" x="608" y="50"/><text fill="#000000" font-family="sans-serif" font-size="14" lengthAdjust="spacing" textLength="121" x="615" y="71.9659">Quiz Service (app)</text><rect fill="#E2E2F0" height="33.0679" rx="2.5" ry="2.5" style="stroke:#181818;stroke-width:0.5;" width="135" x="608" y="802.6003"/><text fill="#000000" font-family="sans-serif" font-size="14" lengthAdjust="spacing" textLength="121" x="615" y="824.5662">Quiz Service (app)</text><rect fill="#E2E2F0" height="33.0679" rx="2.5" ry="2.5" style="stroke:#181818;stroke-width:0.5;" width="94" x="823.5" y="50"/><text fill="#000000" font-family="sans-serif" font-size="14" lengthAdjust="spacing" textLength="80" x="830.5" y="71.9659">Redis cache</text><rect fill="#E2E2F0" height="33.0679" rx="2.5" ry="2.5" style="stroke:#181818;stroke-width:0.5;" width="94" x="823.5" y="802.6003"/><text fill="#000000" font-family="sans-serif" font-size="14" lengthAdjust="spacing" textLength="80" x="830.5" y="824.5662">Redis cache</text><rect fill="#E2E2F0" height="33.0679" rx="2.5" ry="2.5" style="stroke:#181818;stroke-width:0.5;" width="77" x="927.5" y="50"/><text fill="#000000" font-family="sans-serif" font-size="14" lengthAdjust="spacing" textLength="63" x="934.5" y="71.9659">Database</text><rect fill="#E2E2F0" height="33.0679" rx="2.5" ry="2.5" style="stroke:#181818;stroke-width:0.5;" width="77" x="927.5" y="802.6003"/><text fill="#000000" font-family="sans-serif" font-size="14" lengthAdjust="spacing" textLength="63" x="934.5" y="824.5662">Database</text><rect fill="#E2E2F0" height="33.0679" rx="2.5" ry="2.5" style="stroke:#181818;stroke-width:0.5;" width="139" x="1014.5" y="50"/><text fill="#000000" font-family="sans-serif" font-size="14" lengthAdjust="spacing" textLength="125" x="1021.5" y="71.9659">Queue (RabbitMQ)</text><rect fill="#E2E2F0" height="33.0679" rx="2.5" ry="2.5" style="stroke:#181818;stroke-width:0.5;" width="139" x="1014.5" y="802.6003"/><text fill="#000000" font-family="sans-serif" font-size="14" lengthAdjust="spacing" textLength="125" x="1021.5" y="824.5662">Queue (RabbitMQ)</text><polygon fill="#181818" points="149.5,113.7739,159.5,117.7739,149.5,121.7739,153.5,117.7739" style="stroke:#181818;stroke-width:1.0;"/><line style="stroke:#181818;stroke-width:1.0;" x1="38.5" x2="155.5" y1="117.7739" y2="117.7739"/><text fill="#000000" font-family="sans-serif" font-size="13" lengthAdjust="spacing" textLength="99" x="45.5" y="111.9649">Join quiz (quizId)</text><polygon fill="#181818" points="450.5,145.4799,460.5,149.4799,450.5,153.4799,454.5,149.4799" style="stroke:#181818;stroke-width:1.0;"/><line style="stroke:#181818;stroke-width:1.0;" x1="161.5" x2="456.5" y1="149.4799" y2="149.4799"/><text fill="#000000" font-family="sans-serif" font-size="13" lengthAdjust="spacing" textLength="277" x="168.5" y="143.6709">Connect WebSocket (/submit-answer/{quizId})</text><polygon fill="#181818" points="663.5,177.186,673.5,181.186,663.5,185.186,667.5,181.186" style="stroke:#181818;stroke-width:1.0;"/><line style="stroke:#181818;stroke-width:1.0;" x1="462.5" x2="669.5" y1="181.186" y2="181.186"/><text fill="#000000" font-family="sans-serif" font-size="13" lengthAdjust="spacing" textLength="181" x="469.5" y="175.377">Add user to quiz room (quizId)</text><polygon fill="#181818" points="858.5,208.892,868.5,212.892,858.5,216.892,862.5,212.892" style="stroke:#181818;stroke-width:1.0;"/><line style="stroke:#181818;stroke-width:1.0;" x1="675.5" x2="864.5" y1="212.892" y2="212.892"/><text fill="#000000" font-family="sans-serif" font-size="13" lengthAdjust="spacing" textLength="91" x="682.5" y="207.083">Cache user info</text><polygon fill="#181818" points="450.5,240.598,460.5,244.598,450.5,248.598,454.5,244.598" style="stroke:#181818;stroke-width:1.0;"/><line style="stroke:#181818;stroke-width:1.0;" x1="161.5" x2="456.5" y1="244.598" y2="244.598"/><text fill="#000000" font-family="sans-serif" font-size="13" lengthAdjust="spacing" textLength="156" x="168.5" y="238.789">Request quiz start (quizId)</text><polygon fill="#181818" points="663.5,272.304,673.5,276.304,663.5,280.304,667.5,276.304" style="stroke:#181818;stroke-width:1.0;"/><line style="stroke:#181818;stroke-width:1.0;" x1="462.5" x2="669.5" y1="276.304" y2="276.304"/><text fill="#000000" font-family="sans-serif" font-size="13" lengthAdjust="spacing" textLength="57" x="469.5" y="270.495">Start quiz</text><polygon fill="#181818" points="172.5,304.01,162.5,308.01,172.5,312.01,168.5,308.01" style="stroke:#181818;stroke-width:1.0;"/><line style="stroke:#181818;stroke-width:1.0;" x1="166.5" x2="674.5" y1="308.01" y2="308.01"/><text fill="#000000" font-family="sans-serif" font-size="13" lengthAdjust="spacing" textLength="112" x="178.5" y="302.201">Send first question</text><path d="M10,323.01 L82,323.01 L82,332.716 L72,342.716 L10,342.716 L10,323.01 " fill="#EEEEEE" style="stroke:#000000;stroke-width:1.5;"/><rect fill="none" height="241.6481" style="stroke:#000000;stroke-width:1.5;" width="917.5" x="10" y="323.01"/><text fill="#000000" font-family="sans-serif" font-size="13" font-weight="bold" lengthAdjust="spacing" textLength="27" x="25" y="337.907">loop</text><text fill="#000000" font-family="sans-serif" font-size="11" font-weight="bold" lengthAdjust="spacing" textLength="94" x="97" y="336.7689">[For each answer]</text><polygon fill="#181818" points="149.5,362.4221,159.5,366.4221,149.5,370.4221,153.5,366.4221" style="stroke:#181818;stroke-width:1.0;"/><line style="stroke:#181818;stroke-width:1.0;" x1="38.5" x2="155.5" y1="366.4221" y2="366.4221"/><text fill="#000000" font-family="sans-serif" font-size="13" lengthAdjust="spacing" textLength="89" x="45.5" y="360.6131">Submit answer</text><polygon fill="#181818" points="450.5,394.1281,460.5,398.1281,450.5,402.1281,454.5,398.1281" style="stroke:#181818;stroke-width:1.0;"/><line style="stroke:#181818;stroke-width:1.0;" x1="161.5" x2="456.5" y1="398.1281" y2="398.1281"/><text fill="#000000" font-family="sans-serif" font-size="13" lengthAdjust="spacing" textLength="233" x="168.5" y="392.3191">Send answer (/submit-answer/{quizId})</text><polygon fill="#181818" points="663.5,425.8341,673.5,429.8341,663.5,433.8341,667.5,429.8341" style="stroke:#181818;stroke-width:1.0;"/><line style="stroke:#181818;stroke-width:1.0;" x1="462.5" x2="669.5" y1="429.8341" y2="429.8341"/><text fill="#000000" font-family="sans-serif" font-size="13" lengthAdjust="spacing" textLength="189" x="469.5" y="424.0251">Process answer (quizId, answer)</text><polygon fill="#181818" points="858.5,457.5401,868.5,461.5401,858.5,465.5401,862.5,461.5401" style="stroke:#181818;stroke-width:1.0;"/><line style="stroke:#181818;stroke-width:1.0;" x1="675.5" x2="864.5" y1="461.5401" y2="461.5401"/><text fill="#000000" font-family="sans-serif" font-size="13" lengthAdjust="spacing" textLength="129" x="682.5" y="455.7311">Update score in Redis</text><polygon fill="#181818" points="686.5,489.2461,676.5,493.2461,686.5,497.2461,682.5,493.2461" style="stroke:#181818;stroke-width:1.0;"/><line style="stroke:#181818;stroke-width:1.0;" x1="680.5" x2="869.5" y1="493.2461" y2="493.2461"/><text fill="#000000" font-family="sans-serif" font-size="13" lengthAdjust="spacing" textLength="171" x="692.5" y="487.4371">Return updated leaderboard</text><polygon fill="#181818" points="473.5,520.9521,463.5,524.9521,473.5,528.9521,469.5,524.9521" style="stroke:#181818;stroke-width:1.0;"/><line style="stroke:#181818;stroke-width:1.0;" x1="467.5" x2="674.5" y1="524.9521" y2="524.9521"/><text fill="#000000" font-family="sans-serif" font-size="13" lengthAdjust="spacing" textLength="129" x="479.5" y="519.1431">Updated leaderboard</text><polygon fill="#181818" points="172.5,552.6582,162.5,556.6582,172.5,560.6582,168.5,556.6582" style="stroke:#181818;stroke-width:1.0;"/><line style="stroke:#181818;stroke-width:1.0;" x1="166.5" x2="461.5" y1="556.6582" y2="556.6582"/><text fill="#000000" font-family="sans-serif" font-size="13" lengthAdjust="spacing" textLength="182" x="178.5" y="550.8492">Broadcast leaderboard update</text><polygon fill="#181818" points="450.5,591.3642,460.5,595.3642,450.5,599.3642,454.5,595.3642" style="stroke:#181818;stroke-width:1.0;"/><line style="stroke:#181818;stroke-width:1.0;" x1="161.5" x2="456.5" y1="595.3642" y2="595.3642"/><text fill="#000000" font-family="sans-serif" font-size="13" lengthAdjust="spacing" textLength="139" x="168.5" y="589.5552">Notify quiz end (quizId)</text><polygon fill="#181818" points="663.5,623.0702,673.5,627.0702,663.5,631.0702,667.5,627.0702" style="stroke:#181818;stroke-width:1.0;"/><line style="stroke:#181818;stroke-width:1.0;" x1="462.5" x2="669.5" y1="627.0702" y2="627.0702"/><text fill="#000000" font-family="sans-serif" font-size="13" lengthAdjust="spacing" textLength="99" x="469.5" y="621.2612">End quiz (quizId)</text><polygon fill="#181818" points="858.5,654.7762,868.5,658.7762,858.5,662.7762,862.5,658.7762" style="stroke:#181818;stroke-width:1.0;"/><line style="stroke:#181818;stroke-width:1.0;" x1="675.5" x2="864.5" y1="658.7762" y2="658.7762"/><text fill="#000000" font-family="sans-serif" font-size="13" lengthAdjust="spacing" textLength="137" x="682.5" y="652.9672">Fetch final leaderboard</text><polygon fill="#181818" points="473.5,686.4822,463.5,690.4822,473.5,694.4822,469.5,690.4822" style="stroke:#181818;stroke-width:1.0;"/><line style="stroke:#181818;stroke-width:1.0;" x1="467.5" x2="674.5" y1="690.4822" y2="690.4822"/><text fill="#000000" font-family="sans-serif" font-size="13" lengthAdjust="spacing" textLength="104" x="479.5" y="684.6732">Final leaderboard</text><polygon fill="#181818" points="172.5,718.1882,162.5,722.1882,172.5,726.1882,168.5,722.1882" style="stroke:#181818;stroke-width:1.0;"/><line style="stroke:#181818;stroke-width:1.0;" x1="166.5" x2="461.5" y1="722.1882" y2="722.1882"/><text fill="#000000" font-family="sans-serif" font-size="13" lengthAdjust="spacing" textLength="164" x="178.5" y="716.3792">Broadcast final leaderboard</text><polygon fill="#181818" points="1072,749.8943,1082,753.8943,1072,757.8943,1076,753.8943" style="stroke:#181818;stroke-width:1.0;"/><line style="stroke:#181818;stroke-width:1.0;" x1="462.5" x2="1078" y1="753.8943" y2="753.8943"/><text fill="#000000" font-family="sans-serif" font-size="13" lengthAdjust="spacing" textLength="214" x="469.5" y="748.0853">Send to queue (for post-processing)</text><polygon fill="#181818" points="686.5,781.6003,676.5,785.6003,686.5,789.6003,682.5,785.6003" style="stroke:#181818;stroke-width:1.0;"/><line style="stroke:#181818;stroke-width:1.0;" x1="680.5" x2="1083" y1="785.6003" y2="785.6003"/><text fill="#000000" font-family="sans-serif" font-size="13" lengthAdjust="spacing" textLength="275" x="692.5" y="779.7913">Handle post-processing (DB: Save final results)</text><!--SRC=[VLDDRzim3BthLn2zD0OMz9x3WALfq1ROiCO8TgObUXNgIgv4TzY6_VVfmrbinxCFjYmzyl4zKYZPEZXwSg95nrhg5Wt3rJUgIYjVY44scWnV0NguJSl_0KEETtAmmhOj4hnC6sFuKwT_fGCjQG8DEsFiWPJs854-KwQFgp5aXumL-do-sqwvg0ia1wmgpP-VCbFQ528gXlN7Nj867gqsy1QBMyNtWof4FegWB6G3jzOOaWndpQiRtrMlcjTe_0zoDxzpy9z2v9XJTD2sWKzAGHTvsMOgP-thcU_aIgmgAjtaJmxHfhOp5HtehIFFEPtde7wSRr91cH0HC6BhFIZ9AAYrI_b2LcsD48srBUp3Z50e1h9C0U6PEbWc8uQ8ot8JGqOiM1TZPuh_wgmax__5P_o7_lySDlRms2fa0Y-je-0YfA7AvILtXmm7uiuPw5A8WePGaQiiEZLDVX9qN82ExTawYqfYy7Q0xQb4i4NCTFUBPLt_pCsDpYsrzYwSZ-VtqeizSUXXhGqseugl1z3TDhG9twc7EV9TmrxCQDzVv5bINI-WqvtifoFTZNHlwp1qhVMyRdFZjVbUY7odXyBlqQY6faXOpGif_W80]--></g></svg>